<?xml version="1.0" encoding="UTF-8" standalone="no"?>
<!DOCTYPE svg PUBLIC "-//W3C//DTD SVG 1.1//EN"
 "http://www.w3.org/Graphics/SVG/1.1/DTD/svg11.dtd">
<!-- Generated by graphviz version 2.40.1 (20161225.0304)
 -->
<!-- Title: Tree Pages: 1 -->
<svg width="1058pt" height="603pt"
 viewBox="0.00 0.00 1058.00 603.00" xmlns="http://www.w3.org/2000/svg" xmlns:xlink="http://www.w3.org/1999/xlink">
<g id="graph0" class="graph" transform="scale(1 1) rotate(0) translate(4 599)">
<title>Tree</title>
<polygon fill="#ffffff" stroke="transparent" points="-4,4 -4,-599 1054,-599 1054,4 -4,4"/>
<!-- 0 -->
<g id="node1" class="node">
<title>0</title>
<path fill="#fff8dc" stroke="#000000" d="M772,-595C772,-595 632,-595 632,-595 626,-595 620,-589 620,-583 620,-583 620,-515 620,-515 620,-509 626,-503 632,-503 632,-503 772,-503 772,-503 778,-503 784,-509 784,-515 784,-515 784,-583 784,-583 784,-589 778,-595 772,-595"/>
<text text-anchor="start" x="676.5" y="-580.8" font-family="Helvetica,sans-Serif" font-size="14.00" fill="#000000">node #0</text>
<text text-anchor="start" x="676" y="-566.8" font-family="Helvetica,sans-Serif" font-size="14.00" fill="#000000">X</text>
<text text-anchor="start" x="686" y="-566.8" font-family="Helvetica,sans-Serif" baseline-shift="sub" font-size="14.00" fill="#000000">5</text>
<text text-anchor="start" x="693" y="-566.8" font-family="Helvetica,sans-Serif" font-size="14.00" fill="#000000"> ≤ 0.5</text>
<text text-anchor="start" x="673" y="-552.8" font-family="Helvetica,sans-Serif" font-size="14.00" fill="#000000">gini = 0.5</text>
<text text-anchor="start" x="644" y="-538.8" font-family="Helvetica,sans-Serif" font-size="14.00" fill="#000000">samples = 100.0%</text>
<text text-anchor="start" x="650" y="-524.8" font-family="Helvetica,sans-Serif" font-size="14.00" fill="#000000">value = [0.5, 0.5]</text>
<text text-anchor="start" x="628" y="-510.8" font-family="Helvetica,sans-Serif" font-size="14.00" fill="#000000">class = More than $50K</text>
</g>
<!-- 1 -->
<g id="node2" class="node">
<title>1</title>
<path fill="#fff8dc" stroke="#000000" d="M593,-467C593,-467 453,-467 453,-467 447,-467 441,-461 441,-455 441,-455 441,-387 441,-387 441,-381 447,-375 453,-375 453,-375 593,-375 593,-375 599,-375 605,-381 605,-387 605,-387 605,-455 605,-455 605,-461 599,-467 593,-467"/>
<text text-anchor="start" x="497.5" y="-452.8" font-family="Helvetica,sans-Serif" font-size="14.00" fill="#000000">node #1</text>
<text text-anchor="start" x="497" y="-438.8" font-family="Helvetica,sans-Serif" font-size="14.00" fill="#000000">X</text>
<text text-anchor="start" x="507" y="-438.8" font-family="Helvetica,sans-Serif" baseline-shift="sub" font-size="14.00" fill="#000000">2</text>
<text text-anchor="start" x="514" y="-438.8" font-family="Helvetica,sans-Serif" font-size="14.00" fill="#000000"> ≤ 9.5</text>
<text text-anchor="start" x="494" y="-424.8" font-family="Helvetica,sans-Serif" font-size="14.00" fill="#000000">gini = 0.4</text>
<text text-anchor="start" x="469" y="-410.8" font-family="Helvetica,sans-Serif" font-size="14.00" fill="#000000">samples = 40.7%</text>
<text text-anchor="start" x="455" y="-396.8" font-family="Helvetica,sans-Serif" font-size="14.00" fill="#000000">value = [0.277, 0.723]</text>
<text text-anchor="start" x="449" y="-382.8" font-family="Helvetica,sans-Serif" font-size="14.00" fill="#000000">class = More than $50K</text>
</g>
<!-- 0&#45;&gt;1 -->
<g id="edge1" class="edge">
<title>0&#45;&gt;1</title>
<path fill="none" stroke="#4682b4" d="M637.6298,-502.9699C624.1004,-493.2952 609.7372,-483.0244 595.9204,-473.1442"/>
<polygon fill="#4682b4" stroke="#4682b4" points="597.5705,-470.0214 587.4003,-467.0516 593.4988,-475.7154 597.5705,-470.0214"/>
<text text-anchor="middle" x="591.4973" y="-488.0137" font-family="Helvetica,sans-Serif" font-size="14.00" fill="#000000">True</text>
</g>
<!-- 2 -->
<g id="node11" class="node">
<title>2</title>
<path fill="#fff8dc" stroke="#000000" d="M851,-467C851,-467 733,-467 733,-467 727,-467 721,-461 721,-455 721,-455 721,-387 721,-387 721,-381 727,-375 733,-375 733,-375 851,-375 851,-375 857,-375 863,-381 863,-387 863,-387 863,-455 863,-455 863,-461 857,-467 851,-467"/>
<text text-anchor="start" x="766.5" y="-452.8" font-family="Helvetica,sans-Serif" font-size="14.00" fill="#000000">node #2</text>
<text text-anchor="start" x="766" y="-438.8" font-family="Helvetica,sans-Serif" font-size="14.00" fill="#000000">X</text>
<text text-anchor="start" x="776" y="-438.8" font-family="Helvetica,sans-Serif" baseline-shift="sub" font-size="14.00" fill="#000000">5</text>
<text text-anchor="start" x="783" y="-438.8" font-family="Helvetica,sans-Serif" font-size="14.00" fill="#000000"> ≤ 4.5</text>
<text text-anchor="start" x="755.5" y="-424.8" font-family="Helvetica,sans-Serif" font-size="14.00" fill="#000000">gini = 0.354</text>
<text text-anchor="start" x="738" y="-410.8" font-family="Helvetica,sans-Serif" font-size="14.00" fill="#000000">samples = 59.3%</text>
<text text-anchor="start" x="732" y="-396.8" font-family="Helvetica,sans-Serif" font-size="14.00" fill="#000000">value = [0.77, 0.23]</text>
<text text-anchor="start" x="729" y="-382.8" font-family="Helvetica,sans-Serif" font-size="14.00" fill="#000000">class = $50K or less</text>
</g>
<!-- 0&#45;&gt;2 -->
<g id="edge10" class="edge">
<title>0&#45;&gt;2</title>
<path fill="none" stroke="#4682b4" d="M734.4921,-502.7891C740.7371,-493.9072 747.3312,-484.5289 753.7389,-475.4158"/>
<polygon fill="#4682b4" stroke="#4682b4" points="756.6669,-477.3365 759.5556,-467.1431 750.9407,-473.3103 756.6669,-477.3365"/>
<text text-anchor="middle" x="763.8487" y="-488.0717" font-family="Helvetica,sans-Serif" font-size="14.00" fill="#000000">False</text>
</g>
<!-- 5 -->
<g id="node3" class="node">
<title>5</title>
<path fill="#fff8dc" stroke="#000000" d="M316,-339C316,-339 188,-339 188,-339 182,-339 176,-333 176,-327 176,-327 176,-259 176,-259 176,-253 182,-247 188,-247 188,-247 316,-247 316,-247 322,-247 328,-253 328,-259 328,-259 328,-327 328,-327 328,-333 322,-339 316,-339"/>
<text text-anchor="start" x="226.5" y="-324.8" font-family="Helvetica,sans-Serif" font-size="14.00" fill="#000000">node #5</text>
<text text-anchor="start" x="214" y="-310.8" font-family="Helvetica,sans-Serif" font-size="14.00" fill="#000000">X</text>
<text text-anchor="start" x="224" y="-310.8" font-family="Helvetica,sans-Serif" baseline-shift="sub" font-size="14.00" fill="#000000">8</text>
<text text-anchor="start" x="231" y="-310.8" font-family="Helvetica,sans-Serif" font-size="14.00" fill="#000000"> ≤ 4225.0</text>
<text text-anchor="start" x="215.5" y="-296.8" font-family="Helvetica,sans-Serif" font-size="14.00" fill="#000000">gini = 0.466</text>
<text text-anchor="start" x="198" y="-282.8" font-family="Helvetica,sans-Serif" font-size="14.00" fill="#000000">samples = 17.6%</text>
<text text-anchor="start" x="184" y="-268.8" font-family="Helvetica,sans-Serif" font-size="14.00" fill="#000000">value = [0.631, 0.369]</text>
<text text-anchor="start" x="189" y="-254.8" font-family="Helvetica,sans-Serif" font-size="14.00" fill="#000000">class = $50K or less</text>
</g>
<!-- 1&#45;&gt;5 -->
<g id="edge2" class="edge">
<title>1&#45;&gt;5</title>
<path fill="none" stroke="#4682b4" d="M440.9556,-382.2484C408.2041,-366.7791 370.4904,-348.9659 337.4116,-333.342"/>
<polygon fill="#4682b4" stroke="#4682b4" points="338.7496,-330.1032 328.2126,-328.9971 335.7599,-336.4327 338.7496,-330.1032"/>
</g>
<!-- 6 -->
<g id="node6" class="node">
<title>6</title>
<path fill="#fff8dc" stroke="#000000" d="M593,-339C593,-339 453,-339 453,-339 447,-339 441,-333 441,-327 441,-327 441,-259 441,-259 441,-253 447,-247 453,-247 453,-247 593,-247 593,-247 599,-247 605,-253 605,-259 605,-259 605,-327 605,-327 605,-333 599,-339 593,-339"/>
<text text-anchor="start" x="497.5" y="-324.8" font-family="Helvetica,sans-Serif" font-size="14.00" fill="#000000">node #6</text>
<text text-anchor="start" x="493" y="-310.8" font-family="Helvetica,sans-Serif" font-size="14.00" fill="#000000">X</text>
<text text-anchor="start" x="503" y="-310.8" font-family="Helvetica,sans-Serif" baseline-shift="sub" font-size="14.00" fill="#000000">2</text>
<text text-anchor="start" x="510" y="-310.8" font-family="Helvetica,sans-Serif" font-size="14.00" fill="#000000"> ≤ 12.5</text>
<text text-anchor="start" x="486.5" y="-296.8" font-family="Helvetica,sans-Serif" font-size="14.00" fill="#000000">gini = 0.241</text>
<text text-anchor="start" x="469" y="-282.8" font-family="Helvetica,sans-Serif" font-size="14.00" fill="#000000">samples = 23.2%</text>
<text text-anchor="start" x="463" y="-268.8" font-family="Helvetica,sans-Serif" font-size="14.00" fill="#000000">value = [0.14, 0.86]</text>
<text text-anchor="start" x="449" y="-254.8" font-family="Helvetica,sans-Serif" font-size="14.00" fill="#000000">class = More than $50K</text>
</g>
<!-- 1&#45;&gt;6 -->
<g id="edge5" class="edge">
<title>1&#45;&gt;6</title>
<path fill="none" stroke="#4682b4" d="M523,-374.7891C523,-366.5417 523,-357.8661 523,-349.3724"/>
<polygon fill="#4682b4" stroke="#4682b4" points="526.5001,-349.1431 523,-339.1431 519.5001,-349.1431 526.5001,-349.1431"/>
</g>
<!-- 9 -->
<g id="node4" class="node">
<title>9</title>
<path fill="#ff7f50" stroke="#000000" d="M140,-206.5C140,-206.5 12,-206.5 12,-206.5 6,-206.5 0,-200.5 0,-194.5 0,-194.5 0,-135.5 0,-135.5 0,-129.5 6,-123.5 12,-123.5 12,-123.5 140,-123.5 140,-123.5 146,-123.5 152,-129.5 152,-135.5 152,-135.5 152,-194.5 152,-194.5 152,-200.5 146,-206.5 140,-206.5"/>
<text text-anchor="start" x="50.5" y="-191.3" font-family="Helvetica,sans-Serif" font-size="14.00" fill="#000000">node #9</text>
<text text-anchor="start" x="39.5" y="-176.3" font-family="Helvetica,sans-Serif" font-size="14.00" fill="#000000">gini = 0.416</text>
<text text-anchor="start" x="22" y="-161.3" font-family="Helvetica,sans-Serif" font-size="14.00" fill="#000000">samples = 16.7%</text>
<text text-anchor="start" x="8" y="-146.3" font-family="Helvetica,sans-Serif" font-size="14.00" fill="#000000">value = [0.705, 0.295]</text>
<text text-anchor="start" x="13" y="-131.3" font-family="Helvetica,sans-Serif" font-size="14.00" fill="#000000">class = $50K or less</text>
</g>
<!-- 5&#45;&gt;9 -->
<g id="edge3" class="edge">
<title>5&#45;&gt;9</title>
<path fill="none" stroke="#4682b4" d="M188.46,-246.7891C173.2566,-235.7321 156.9953,-223.9057 141.6967,-212.7794"/>
<polygon fill="#4682b4" stroke="#4682b4" points="143.4554,-209.7307 133.3094,-206.6796 139.3382,-215.3919 143.4554,-209.7307"/>
</g>
<!-- 10 -->
<g id="node5" class="node">
<title>10</title>
<path fill="#00ced1" stroke="#000000" d="M322,-206.5C322,-206.5 182,-206.5 182,-206.5 176,-206.5 170,-200.5 170,-194.5 170,-194.5 170,-135.5 170,-135.5 170,-129.5 176,-123.5 182,-123.5 182,-123.5 322,-123.5 322,-123.5 328,-123.5 334,-129.5 334,-135.5 334,-135.5 334,-194.5 334,-194.5 334,-200.5 328,-206.5 322,-206.5"/>
<text text-anchor="start" x="222.5" y="-191.3" font-family="Helvetica,sans-Serif" font-size="14.00" fill="#000000">node #10</text>
<text text-anchor="start" x="215.5" y="-176.3" font-family="Helvetica,sans-Serif" font-size="14.00" fill="#000000">gini = 0.103</text>
<text text-anchor="start" x="202" y="-161.3" font-family="Helvetica,sans-Serif" font-size="14.00" fill="#000000">samples = 0.8%</text>
<text text-anchor="start" x="184" y="-146.3" font-family="Helvetica,sans-Serif" font-size="14.00" fill="#000000">value = [0.055, 0.945]</text>
<text text-anchor="start" x="178" y="-131.3" font-family="Helvetica,sans-Serif" font-size="14.00" fill="#000000">class = More than $50K</text>
</g>
<!-- 5&#45;&gt;10 -->
<g id="edge4" class="edge">
<title>5&#45;&gt;10</title>
<path fill="none" stroke="#4682b4" d="M252,-246.7891C252,-237.1162 252,-226.8544 252,-216.9877"/>
<polygon fill="#4682b4" stroke="#4682b4" points="255.5001,-216.8898 252,-206.8898 248.5001,-216.8899 255.5001,-216.8898"/>
</g>
<!-- 11 -->
<g id="node7" class="node">
<title>11</title>
<path fill="#fff8dc" stroke="#000000" d="M504,-211C504,-211 364,-211 364,-211 358,-211 352,-205 352,-199 352,-199 352,-131 352,-131 352,-125 358,-119 364,-119 364,-119 504,-119 504,-119 510,-119 516,-125 516,-131 516,-131 516,-199 516,-199 516,-205 510,-211 504,-211"/>
<text text-anchor="start" x="404.5" y="-196.8" font-family="Helvetica,sans-Serif" font-size="14.00" fill="#000000">node #11</text>
<text text-anchor="start" x="404" y="-182.8" font-family="Helvetica,sans-Serif" font-size="14.00" fill="#000000">X</text>
<text text-anchor="start" x="414" y="-182.8" font-family="Helvetica,sans-Serif" baseline-shift="sub" font-size="14.00" fill="#000000">0</text>
<text text-anchor="start" x="421" y="-182.8" font-family="Helvetica,sans-Serif" font-size="14.00" fill="#000000"> ≤ 35.5</text>
<text text-anchor="start" x="397.5" y="-168.8" font-family="Helvetica,sans-Serif" font-size="14.00" fill="#000000">gini = 0.419</text>
<text text-anchor="start" x="380" y="-154.8" font-family="Helvetica,sans-Serif" font-size="14.00" fill="#000000">samples = 10.8%</text>
<text text-anchor="start" x="366" y="-140.8" font-family="Helvetica,sans-Serif" font-size="14.00" fill="#000000">value = [0.299, 0.701]</text>
<text text-anchor="start" x="360" y="-126.8" font-family="Helvetica,sans-Serif" font-size="14.00" fill="#000000">class = More than $50K</text>
</g>
<!-- 6&#45;&gt;11 -->
<g id="edge6" class="edge">
<title>6&#45;&gt;11</title>
<path fill="none" stroke="#4682b4" d="M490.869,-246.7891C484.6933,-237.9072 478.1724,-228.5289 471.836,-219.4158"/>
<polygon fill="#4682b4" stroke="#4682b4" points="474.6663,-217.3554 466.0839,-211.1431 468.9191,-221.3516 474.6663,-217.3554"/>
</g>
<!-- 12 -->
<g id="node10" class="node">
<title>12</title>
<path fill="#00ced1" stroke="#000000" d="M686,-206.5C686,-206.5 546,-206.5 546,-206.5 540,-206.5 534,-200.5 534,-194.5 534,-194.5 534,-135.5 534,-135.5 534,-129.5 540,-123.5 546,-123.5 546,-123.5 686,-123.5 686,-123.5 692,-123.5 698,-129.5 698,-135.5 698,-135.5 698,-194.5 698,-194.5 698,-200.5 692,-206.5 686,-206.5"/>
<text text-anchor="start" x="586.5" y="-191.3" font-family="Helvetica,sans-Serif" font-size="14.00" fill="#000000">node #12</text>
<text text-anchor="start" x="587" y="-176.3" font-family="Helvetica,sans-Serif" font-size="14.00" fill="#000000">gini = 0.1</text>
<text text-anchor="start" x="562" y="-161.3" font-family="Helvetica,sans-Serif" font-size="14.00" fill="#000000">samples = 12.4%</text>
<text text-anchor="start" x="548" y="-146.3" font-family="Helvetica,sans-Serif" font-size="14.00" fill="#000000">value = [0.053, 0.947]</text>
<text text-anchor="start" x="542" y="-131.3" font-family="Helvetica,sans-Serif" font-size="14.00" fill="#000000">class = More than $50K</text>
</g>
<!-- 6&#45;&gt;12 -->
<g id="edge9" class="edge">
<title>6&#45;&gt;12</title>
<path fill="none" stroke="#4682b4" d="M556.5751,-246.7891C564.047,-236.5053 572.0024,-225.5558 579.5824,-215.1232"/>
<polygon fill="#4682b4" stroke="#4682b4" points="582.518,-217.0373 585.5644,-206.8898 576.8549,-212.9227 582.518,-217.0373"/>
</g>
<!-- 13 -->
<g id="node8" class="node">
<title>13</title>
<path fill="#ff7f50" stroke="#000000" d="M410,-83C410,-83 282,-83 282,-83 276,-83 270,-77 270,-71 270,-71 270,-12 270,-12 270,-6 276,0 282,0 282,0 410,0 410,0 416,0 422,-6 422,-12 422,-12 422,-71 422,-71 422,-77 416,-83 410,-83"/>
<text text-anchor="start" x="316.5" y="-67.8" font-family="Helvetica,sans-Serif" font-size="14.00" fill="#000000">node #13</text>
<text text-anchor="start" x="309.5" y="-52.8" font-family="Helvetica,sans-Serif" font-size="14.00" fill="#000000">gini = 0.437</text>
<text text-anchor="start" x="296" y="-37.8" font-family="Helvetica,sans-Serif" font-size="14.00" fill="#000000">samples = 3.3%</text>
<text text-anchor="start" x="278" y="-22.8" font-family="Helvetica,sans-Serif" font-size="14.00" fill="#000000">value = [0.678, 0.322]</text>
<text text-anchor="start" x="283" y="-7.8" font-family="Helvetica,sans-Serif" font-size="14.00" fill="#000000">class = $50K or less</text>
</g>
<!-- 11&#45;&gt;13 -->
<g id="edge7" class="edge">
<title>11&#45;&gt;13</title>
<path fill="none" stroke="#4682b4" d="M400.9817,-118.6618C394.6339,-109.7533 387.9604,-100.3876 381.537,-91.3729"/>
<polygon fill="#4682b4" stroke="#4682b4" points="384.3782,-89.3289 375.7247,-83.2159 378.6774,-93.391 384.3782,-89.3289"/>
</g>
<!-- 14 -->
<g id="node9" class="node">
<title>14</title>
<path fill="#00ced1" stroke="#000000" d="M592,-83C592,-83 452,-83 452,-83 446,-83 440,-77 440,-71 440,-71 440,-12 440,-12 440,-6 446,0 452,0 452,0 592,0 592,0 598,0 604,-6 604,-12 604,-12 604,-71 604,-71 604,-77 598,-83 592,-83"/>
<text text-anchor="start" x="492.5" y="-67.8" font-family="Helvetica,sans-Serif" font-size="14.00" fill="#000000">node #14</text>
<text text-anchor="start" x="485.5" y="-52.8" font-family="Helvetica,sans-Serif" font-size="14.00" fill="#000000">gini = 0.328</text>
<text text-anchor="start" x="472" y="-37.8" font-family="Helvetica,sans-Serif" font-size="14.00" fill="#000000">samples = 7.5%</text>
<text text-anchor="start" x="454" y="-22.8" font-family="Helvetica,sans-Serif" font-size="14.00" fill="#000000">value = [0.207, 0.793]</text>
<text text-anchor="start" x="448" y="-7.8" font-family="Helvetica,sans-Serif" font-size="14.00" fill="#000000">class = More than $50K</text>
</g>
<!-- 11&#45;&gt;14 -->
<g id="edge8" class="edge">
<title>11&#45;&gt;14</title>
<path fill="none" stroke="#4682b4" d="M467.0183,-118.6618C473.3661,-109.7533 480.0396,-100.3876 486.463,-91.3729"/>
<polygon fill="#4682b4" stroke="#4682b4" points="489.3226,-93.391 492.2753,-83.2159 483.6218,-89.3289 489.3226,-93.391"/>
</g>
<!-- 3 -->
<g id="node12" class="node">
<title>3</title>
<path fill="#fff8dc" stroke="#000000" d="M856,-339C856,-339 728,-339 728,-339 722,-339 716,-333 716,-327 716,-327 716,-259 716,-259 716,-253 722,-247 728,-247 728,-247 856,-247 856,-247 862,-247 868,-253 868,-259 868,-259 868,-327 868,-327 868,-333 862,-339 856,-339"/>
<text text-anchor="start" x="766.5" y="-324.8" font-family="Helvetica,sans-Serif" font-size="14.00" fill="#000000">node #3</text>
<text text-anchor="start" x="754" y="-310.8" font-family="Helvetica,sans-Serif" font-size="14.00" fill="#000000">X</text>
<text text-anchor="start" x="764" y="-310.8" font-family="Helvetica,sans-Serif" baseline-shift="sub" font-size="14.00" fill="#000000">8</text>
<text text-anchor="start" x="771" y="-310.8" font-family="Helvetica,sans-Serif" font-size="14.00" fill="#000000"> ≤ 4668.5</text>
<text text-anchor="start" x="755.5" y="-296.8" font-family="Helvetica,sans-Serif" font-size="14.00" fill="#000000">gini = 0.215</text>
<text text-anchor="start" x="738" y="-282.8" font-family="Helvetica,sans-Serif" font-size="14.00" fill="#000000">samples = 54.5%</text>
<text text-anchor="start" x="724" y="-268.8" font-family="Helvetica,sans-Serif" font-size="14.00" fill="#000000">value = [0.878, 0.122]</text>
<text text-anchor="start" x="729" y="-254.8" font-family="Helvetica,sans-Serif" font-size="14.00" fill="#000000">class = $50K or less</text>
</g>
<!-- 2&#45;&gt;3 -->
<g id="edge11" class="edge">
<title>2&#45;&gt;3</title>
<path fill="none" stroke="#4682b4" d="M792,-374.7891C792,-366.5417 792,-357.8661 792,-349.3724"/>
<polygon fill="#4682b4" stroke="#4682b4" points="795.5001,-349.1431 792,-339.1431 788.5001,-349.1431 795.5001,-349.1431"/>
</g>
<!-- 4 -->
<g id="node15" class="node">
<title>4</title>
<path fill="#00ced1" stroke="#000000" d="M1038,-334.5C1038,-334.5 898,-334.5 898,-334.5 892,-334.5 886,-328.5 886,-322.5 886,-322.5 886,-263.5 886,-263.5 886,-257.5 892,-251.5 898,-251.5 898,-251.5 1038,-251.5 1038,-251.5 1044,-251.5 1050,-257.5 1050,-263.5 1050,-263.5 1050,-322.5 1050,-322.5 1050,-328.5 1044,-334.5 1038,-334.5"/>
<text text-anchor="start" x="942.5" y="-319.3" font-family="Helvetica,sans-Serif" font-size="14.00" fill="#000000">node #4</text>
<text text-anchor="start" x="931.5" y="-304.3" font-family="Helvetica,sans-Serif" font-size="14.00" fill="#000000">gini = 0.325</text>
<text text-anchor="start" x="918" y="-289.3" font-family="Helvetica,sans-Serif" font-size="14.00" fill="#000000">samples = 4.7%</text>
<text text-anchor="start" x="900" y="-274.3" font-family="Helvetica,sans-Serif" font-size="14.00" fill="#000000">value = [0.205, 0.795]</text>
<text text-anchor="start" x="894" y="-259.3" font-family="Helvetica,sans-Serif" font-size="14.00" fill="#000000">class = More than $50K</text>
</g>
<!-- 2&#45;&gt;4 -->
<g id="edge14" class="edge">
<title>2&#45;&gt;4</title>
<path fill="none" stroke="#4682b4" d="M855.54,-374.7891C870.7434,-363.7321 887.0047,-351.9057 902.3033,-340.7794"/>
<polygon fill="#4682b4" stroke="#4682b4" points="904.6618,-343.3919 910.6906,-334.6796 900.5446,-337.7307 904.6618,-343.3919"/>
</g>
<!-- 7 -->
<g id="node13" class="node">
<title>7</title>
<path fill="#ff7f50" stroke="#000000" d="M856,-206.5C856,-206.5 728,-206.5 728,-206.5 722,-206.5 716,-200.5 716,-194.5 716,-194.5 716,-135.5 716,-135.5 716,-129.5 722,-123.5 728,-123.5 728,-123.5 856,-123.5 856,-123.5 862,-123.5 868,-129.5 868,-135.5 868,-135.5 868,-194.5 868,-194.5 868,-200.5 862,-206.5 856,-206.5"/>
<text text-anchor="start" x="766.5" y="-191.3" font-family="Helvetica,sans-Serif" font-size="14.00" fill="#000000">node #7</text>
<text text-anchor="start" x="755.5" y="-176.3" font-family="Helvetica,sans-Serif" font-size="14.00" fill="#000000">gini = 0.117</text>
<text text-anchor="start" x="738" y="-161.3" font-family="Helvetica,sans-Serif" font-size="14.00" fill="#000000">samples = 53.2%</text>
<text text-anchor="start" x="724" y="-146.3" font-family="Helvetica,sans-Serif" font-size="14.00" fill="#000000">value = [0.938, 0.062]</text>
<text text-anchor="start" x="729" y="-131.3" font-family="Helvetica,sans-Serif" font-size="14.00" fill="#000000">class = $50K or less</text>
</g>
<!-- 3&#45;&gt;7 -->
<g id="edge12" class="edge">
<title>3&#45;&gt;7</title>
<path fill="none" stroke="#4682b4" d="M792,-246.7891C792,-237.1162 792,-226.8544 792,-216.9877"/>
<polygon fill="#4682b4" stroke="#4682b4" points="795.5001,-216.8898 792,-206.8898 788.5001,-216.8899 795.5001,-216.8898"/>
</g>
<!-- 8 -->
<g id="node14" class="node">
<title>8</title>
<path fill="#00ced1" stroke="#000000" d="M1038,-206.5C1038,-206.5 898,-206.5 898,-206.5 892,-206.5 886,-200.5 886,-194.5 886,-194.5 886,-135.5 886,-135.5 886,-129.5 892,-123.5 898,-123.5 898,-123.5 1038,-123.5 1038,-123.5 1044,-123.5 1050,-129.5 1050,-135.5 1050,-135.5 1050,-194.5 1050,-194.5 1050,-200.5 1044,-206.5 1038,-206.5"/>
<text text-anchor="start" x="942.5" y="-191.3" font-family="Helvetica,sans-Serif" font-size="14.00" fill="#000000">node #8</text>
<text text-anchor="start" x="931.5" y="-176.3" font-family="Helvetica,sans-Serif" font-size="14.00" fill="#000000">gini = 0.113</text>
<text text-anchor="start" x="918" y="-161.3" font-family="Helvetica,sans-Serif" font-size="14.00" fill="#000000">samples = 1.3%</text>
<text text-anchor="start" x="908" y="-146.3" font-family="Helvetica,sans-Serif" font-size="14.00" fill="#000000">value = [0.06, 0.94]</text>
<text text-anchor="start" x="894" y="-131.3" font-family="Helvetica,sans-Serif" font-size="14.00" fill="#000000">class = More than $50K</text>
</g>
<!-- 3&#45;&gt;8 -->
<g id="edge13" class="edge">
<title>3&#45;&gt;8</title>
<path fill="none" stroke="#4682b4" d="M855.54,-246.7891C870.7434,-235.7321 887.0047,-223.9057 902.3033,-212.7794"/>
<polygon fill="#4682b4" stroke="#4682b4" points="904.6618,-215.3919 910.6906,-206.6796 900.5446,-209.7307 904.6618,-215.3919"/>
</g>
</g>
</svg>
